<svg id="zoo-map-enclosures-svg" version="1.1" xmlns="http://www.w3.org/2000/svg" xmlns:xlink="http://www.w3.org/1999/xlink" x="0px" y="0px" width="100%" viewBox="0 0 1229 597" xml:space="preserve">
  <path id="zoo-map-enclosure-507f1f77bcf86cd799439021" class="path-enclosure" tabindex="0" d="M 787.00,308.00 C 801.79,295.11 802.04,287.08
  797.77,269.00 796.56,263.89 791.60,251.63 794.18,247.22 797.03,242.35
  806.95,240.61 812.00,239.30 820.09,237.21 821.92,235.50 828.00,230.17
  831.08,227.46 834.63,224.23 839.00,224.41 844.77,224.64 846.61,227.98
  851.09,230.14 856.02,232.52 865.59,233.51 871.00,232.54 874.25,231.95
  884.38,229.03 887.00,227.46 893.55,223.51 900.12,216.62 908.00,216.00
  909.55,224.14 913.49,225.63 918.80,231.29 921.07,233.69 922.33,235.34
  925.01,237.47 925.01,237.47 968.00,262.09 968.00,262.09 968.00,262.09
  996.00,280.82 996.00,280.82 996.00,280.82 1014.00,286.36 1014.00,286.36
  1014.00,286.36 1037.00,297.36 1037.00,297.36 1037.00,297.36 1047.00,300.75
  1047.00,300.75 1047.00,300.75 1070.00,316.30 1070.00,316.30 1070.00,316.30
  1084.00,323.76 1084.00,323.76 1089.57,327.46 1092.03,330.79 1099.00,334.51
  1103.74,337.04 1108.96,338.38 1114.00,340.18 1114.00,340.18 1124.00,344.59
  1124.00,344.59 1124.00,344.59 1148.00,351.00 1148.00,351.00 1146.71,353.75
  1140.36,363.47 1137.89,364.82 1135.13,366.33 1132.68,365.48 1130.00,365.83
  1127.47,366.17 1120.23,368.98 1118.00,370.34 1118.00,370.34 1106.00,379.53
  1106.00,379.53 1106.00,379.53 1079.00,393.73 1079.00,393.73 1079.00,393.73
  1072.00,395.88 1072.00,395.88 1072.00,395.88 1050.00,402.49 1050.00,402.49
  1050.00,402.49 1033.00,405.59 1033.00,405.59 1026.63,407.11 1020.66,406.97
  1015.01,410.80 1009.46,414.57 1008.21,420.06 1003.00,418.71 1003.00,418.71
  993.00,413.11 993.00,413.11 985.54,409.87 981.59,410.78 974.00,406.89
  957.57,398.48 955.51,393.67 949.00,389.71 949.00,389.71 927.00,378.09
  927.00,378.09 927.00,378.09 919.00,374.83 919.00,374.83 919.00,374.83
  891.00,361.73 891.00,361.73 891.00,361.73 862.00,354.60 862.00,354.60
  862.00,354.60 820.00,335.67 820.00,335.67 813.77,332.29 800.50,325.24
  799.00,318.00 793.63,316.47 788.94,313.38 787.00,308.00 Z" />

  <path id="zoo-map-enclosure-507f1f77bcf86cd799439019" class="path-enclosure" fill="none" tabindex="0" d="M 689.00,388.00
     C 687.09,386.91 677.85,378.48 677.28,376.84
       676.90,375.89 676.93,375.13 677.28,374.19
       678.10,372.31 681.34,370.28 683.00,369.12
       683.00,369.12 699.00,359.58 699.00,359.58
       699.00,359.58 710.00,353.51 710.00,353.51
       710.00,353.51 717.91,349.79 717.91,349.79
       717.91,349.79 732.00,339.46 732.00,339.46
       732.00,339.46 757.00,325.83 757.00,325.83
       757.00,325.83 772.83,315.57 772.83,315.57
       775.31,313.68 777.56,311.08 781.00,311.56
       783.82,311.95 787.48,315.23 790.00,316.82
       790.00,316.82 812.00,332.56 812.00,332.56
       817.41,336.33 820.50,337.09 826.00,339.94
       836.59,345.43 851.37,352.66 863.00,355.18
       870.49,356.81 874.37,356.81 882.00,359.99
       882.00,359.99 896.00,367.50 896.00,367.50
       896.00,367.50 928.00,381.29 928.00,381.29
       934.93,384.85 939.44,385.59 945.83,391.37
       950.64,395.73 951.08,399.64 958.00,403.02
       963.02,405.48 964.22,404.55 968.00,405.39
       968.00,405.39 978.00,409.22 978.00,409.22
       988.77,412.40 996.24,410.76 1001.43,423.00
       1005.33,432.19 995.16,444.18 989.97,451.00
       986.76,455.21 983.21,460.28 979.00,463.45
       979.00,463.45 961.01,474.63 961.01,474.63
       961.01,474.63 953.83,481.20 953.83,481.20
       951.24,483.11 949.27,483.52 946.09,486.33
       946.09,486.33 938.41,494.74 938.41,494.74
       935.71,497.38 923.47,505.36 920.00,506.44
       917.87,507.11 915.23,507.00 913.00,507.00
       913.00,507.00 886.00,507.00 886.00,507.00
       872.05,506.98 874.89,502.90 865.96,496.55
       865.96,496.55 858.00,492.59 858.00,492.59
       858.00,492.59 832.00,479.13 832.00,479.13
       832.00,479.13 814.00,470.50 814.00,470.50
       814.00,470.50 801.00,465.02 801.00,465.02
       801.00,465.02 779.00,453.52 779.00,453.52
       779.00,453.52 749.00,439.82 749.00,439.82
       749.00,439.82 739.00,433.62 739.00,433.62
       726.73,427.08 726.67,430.70 713.42,418.88
       708.05,414.09 699.05,407.36 698.00,400.00
       692.24,398.28 688.26,394.26 689.00,388.00 Z" />

  <path id="zoo-map-enclosure-507f1f77bcf86cd799439017" class="path-enclosure" fill="none" tabindex="0" d="M 415.00,42.42
     C 424.75,41.36 426.87,48.58 435.00,54.37
       439.50,57.57 446.08,59.91 451.00,62.48
       451.00,62.48 474.00,75.84 474.00,75.84
       480.31,79.24 487.26,81.04 494.00,83.28
       500.51,85.45 510.31,88.91 517.00,89.05
       517.00,89.05 529.17,89.05 529.17,89.05
       537.40,88.46 538.72,81.34 543.91,82.01
       547.62,82.50 548.40,87.66 554.01,90.61
       554.01,90.61 573.00,98.51 573.00,98.51
       581.16,102.67 591.11,113.28 594.12,122.00
       598.22,133.81 581.55,140.84 577.01,144.41
       574.89,146.09 573.38,147.86 571.75,150.00
       564.81,159.09 563.43,164.24 554.39,173.00
       540.82,186.12 531.38,190.08 515.00,197.94
       503.19,203.60 485.19,212.82 472.00,213.00
       472.00,213.00 461.00,213.00 461.00,213.00
       450.10,212.87 447.36,211.05 438.00,206.63
       438.00,206.63 427.00,201.66 427.00,201.66
       420.64,198.04 413.03,190.91 407.00,186.34
       407.00,186.34 394.00,177.70 394.00,177.70
       383.69,171.18 373.46,170.42 367.00,167.32
       349.48,158.93 351.44,155.30 341.00,148.05
       332.38,142.07 322.72,138.31 315.00,130.96
       315.00,130.96 306.00,122.37 306.00,122.37
       294.86,113.36 285.11,109.08 276.54,96.00
       272.38,89.63 266.29,78.77 279.00,78.04
       288.53,77.50 291.93,81.40 300.00,80.91
       310.40,80.27 319.21,73.93 328.00,69.04
       328.00,69.04 347.00,60.14 347.00,60.14
       347.00,60.14 370.00,52.48 370.00,52.48
       370.00,52.48 389.00,46.02 389.00,46.02
       389.00,46.02 415.00,42.42 415.00,42.42 Z" />

  <path id="zoo-map-enclosure-507f1f77bcf86cd799439022" class="path-enclosure" fill="none" tabindex="0" d="M 624.00,13.00
     C 625.44,6.83 633.83,7.01 639.00,7.00
       639.00,7.00 668.00,6.00 668.00,6.00
       668.00,6.00 684.00,5.00 684.00,5.00
       684.00,5.00 695.00,5.00 695.00,5.00
       710.16,5.03 729.61,16.66 743.00,23.68
       758.97,32.07 771.10,37.72 785.00,49.95
       792.60,56.65 804.75,66.44 808.44,76.01
       813.42,88.91 805.27,88.97 800.00,95.11
       792.89,103.41 775.76,115.44 766.00,120.96
       766.00,120.96 752.00,128.79 752.00,128.79
       752.00,128.79 744.00,133.73 744.00,133.73
       740.15,135.44 736.37,134.31 735.00,139.00
       730.66,139.62 722.45,141.42 721.00,146.00
       717.14,149.41 713.88,156.02 712.49,161.00
       712.49,161.00 711.08,167.00 711.08,167.00
       707.86,174.80 705.53,171.21 707.00,181.00
       696.61,183.53 690.39,180.07 681.00,176.15
       666.42,170.07 672.28,174.54 657.00,164.21
       657.00,164.21 637.00,153.11 637.00,153.11
       637.00,153.11 619.00,138.52 619.00,138.52
       619.00,138.52 608.00,131.08 608.00,131.08
       608.00,131.08 595.04,120.25 595.04,120.25
       588.49,114.43 584.53,105.40 579.83,101.30
       577.03,98.86 574.22,98.56 571.00,97.02
       571.00,97.02 559.00,90.76 559.00,90.76
       556.27,89.68 552.51,89.14 550.32,87.42
       548.26,85.79 541.46,75.50 540.78,73.00
       539.90,69.78 541.55,67.80 542.76,65.00
       545.88,57.82 545.59,55.06 550.59,48.00
       555.10,41.64 556.34,41.66 562.00,36.87
       576.35,24.69 588.80,19.40 607.00,15.55
       616.88,13.46 612.20,13.00 624.00,13.00 Z" />

  <path id="zoo-map-enclosure-507f1f77bcf86cd799439011" class="path-enclosure" fill="none" tabindex="0" d="M 74.00,413.00
     C 66.16,410.96 66.05,407.70 58.00,404.41
       43.12,398.31 37.15,396.13 23.00,387.42
       14.23,382.02 9.00,379.60 4.13,370.00
       -1.64,358.61 -0.02,343.54 0.00,331.00
       0.01,327.88 -0.18,324.93 1.09,322.00
       3.92,315.44 12.48,310.05 15.32,302.00
       15.32,302.00 19.68,283.00 19.68,283.00
       20.97,275.01 19.69,269.93 26.11,263.02
       35.67,252.72 60.02,251.77 72.79,243.66
       75.84,241.73 77.58,237.93 79.90,235.09
       82.99,231.29 91.34,224.43 96.00,223.05
       100.58,221.71 105.79,224.26 110.00,225.95
       125.36,232.12 135.11,240.44 139.00,242.19
       143.80,244.34 144.93,242.75 154.00,249.60
       163.59,256.83 171.14,266.88 182.00,272.34
       187.41,275.07 191.01,275.97 197.00,276.15
       198.96,276.01 202.18,275.91 204.00,276.15
       204.00,276.15 230.00,289.05 230.00,289.05
       230.00,289.05 251.00,296.08 251.00,296.08
       256.11,297.44 256.33,296.64 262.00,299.00
       262.00,299.00 261.00,302.00 261.00,302.00
       261.00,302.00 264.89,301.00 264.89,301.00
       264.89,301.00 264.89,303.69 264.89,303.69
       264.89,303.69 254.00,310.00 254.00,310.00
       254.00,310.00 244.00,315.83 244.00,315.83
       244.00,315.83 236.00,321.63 236.00,321.63
       236.00,321.63 222.00,329.77 222.00,329.77
       222.00,329.77 203.00,340.44 203.00,340.44
       203.00,340.44 183.00,353.97 183.00,353.97
       183.00,353.97 162.00,361.60 162.00,361.60
       162.00,361.60 146.00,370.49 146.00,370.49
       146.00,370.49 130.00,379.01 130.00,379.01
       130.00,379.01 120.00,385.64 120.00,385.64
       120.00,385.64 98.00,392.05 98.00,392.05
       98.00,392.05 85.08,404.47 85.08,404.47
       85.08,404.47 74.00,413.00 74.00,413.00 Z" />

  <path id="zoo-map-enclosure-507f1f77bcf86cd799439012" class="path-enclosure" fill="none" tabindex="0" d="M 282.00,308.00
           C 290.63,307.52 299.40,314.88 307.00,318.45
             317.51,323.38 316.91,323.89 326.00,329.38
             326.00,329.38 336.00,334.51 336.00,334.51
             336.00,334.51 347.00,341.77 347.00,341.77
             356.84,347.94 367.08,353.66 375.83,361.40
             380.95,365.92 390.72,373.79 394.13,378.87
             395.46,380.86 397.62,383.38 397.04,385.92
             395.87,390.96 386.15,393.72 382.00,395.64
             382.00,395.64 364.00,406.14 364.00,406.14
             364.00,406.14 343.00,417.18 343.00,417.18
             343.00,417.18 314.00,434.69 314.00,434.69
             314.00,434.69 297.00,442.93 297.00,442.93
             297.00,442.93 278.04,455.10 278.04,455.10
             274.25,457.70 272.60,460.14 268.00,462.65
             268.00,462.65 258.00,466.50 258.00,466.50
             258.00,466.50 241.00,474.90 241.00,474.90
             241.00,474.90 234.00,476.68 234.00,476.68
             231.55,477.46 227.29,479.86 225.00,479.96
             221.71,480.11 214.34,474.10 210.00,472.69
             210.00,472.69 190.00,469.12 190.00,469.12
             171.76,464.33 175.83,464.42 161.00,456.60
             161.00,456.60 143.00,449.74 143.00,449.74
             138.18,447.29 136.64,444.39 130.00,441.63
             130.00,441.63 113.00,435.61 113.00,435.61
             105.71,431.83 108.19,429.23 96.00,424.14
             90.55,421.87 84.98,419.67 80.02,416.41
             78.30,415.28 74.89,412.95 76.17,410.47
             77.22,408.42 81.71,407.74 85.83,404.39
             89.73,401.23 90.31,398.76 96.00,395.35
             96.00,395.35 121.00,384.64 121.00,384.64
             121.00,384.64 141.00,374.31 141.00,374.31
             141.00,374.31 156.00,367.74 156.00,367.74
             156.00,367.74 174.00,358.25 174.00,358.25
             174.00,358.25 204.00,342.68 204.00,342.68
             204.00,342.68 212.00,337.24 212.00,337.24
             212.00,337.24 236.73,323.01 236.73,323.01
             238.89,321.38 239.55,319.48 241.41,317.68
             245.34,313.89 247.75,314.67 252.00,312.78
             259.68,309.36 275.83,297.90 282.00,308.00 Z" />

  <path id="zoo-map-enclosure-507f1f77bcf86cd799439023" class="path-enclosure" fill="none" tabindex="0" d="M 710.00,181.00
     C 710.00,181.00 711.81,172.96 711.81,172.96
       711.81,172.96 714.76,165.00 714.76,165.00
       716.13,158.64 715.40,155.45 719.94,150.04
       729.04,139.20 740.50,143.11 754.00,135.59
       759.42,132.56 759.65,129.45 762.55,126.55
       762.55,126.55 773.00,118.32 773.00,118.32
       773.00,118.32 801.00,99.49 801.00,99.49
       804.96,96.30 809.87,90.89 811.47,86.00
       812.97,81.42 813.63,72.81 818.14,70.17
       821.51,68.21 833.61,68.39 838.00,67.68
       849.93,65.74 853.60,62.19 863.00,59.78
       866.30,58.94 870.62,57.51 874.00,58.32
       879.09,59.53 888.62,71.89 893.02,76.08
       907.44,89.85 918.26,100.86 937.00,108.81
       937.00,108.81 970.00,121.04 970.00,121.04
       970.00,121.04 990.00,126.69 990.00,126.69
       990.00,126.69 1007.00,133.89 1007.00,133.89
       1016.80,137.78 1020.82,136.48 1028.38,144.84
       1029.66,146.24 1031.65,148.26 1032.21,150.08
       1034.04,156.01 1021.30,162.50 1017.00,164.99
       1010.52,168.72 1006.65,169.42 1000.00,171.80
       985.94,176.82 969.30,182.80 957.00,191.18
       946.59,198.27 942.12,202.04 930.00,207.13
       930.00,207.13 922.00,210.06 922.00,210.06
       922.00,210.06 911.00,214.69 911.00,214.69
       908.31,215.55 905.51,215.44 903.00,216.71
       903.00,216.71 896.00,221.38 896.00,221.38
       885.63,227.80 876.50,232.29 864.00,231.99
       853.35,231.72 845.60,222.28 839.00,223.22
       833.12,224.07 823.32,232.79 818.00,236.05
       812.34,239.52 808.79,238.68 803.00,241.17
       798.25,243.22 794.56,246.13 789.00,244.49
       779.14,241.58 774.91,228.93 768.96,223.80
       768.96,223.80 756.00,214.09 756.00,214.09
       756.00,214.09 748.00,209.37 748.00,209.37
       748.00,209.37 730.00,194.37 730.00,194.37
       730.00,194.37 710.00,181.00 710.00,181.00 Z" />

  <path id="zoo-map-enclosure-507f1f77bcf86cd799439020" class="path-enclosure" fill="none" tabindex="0" d="M 919.00,229.00
           C 913.92,223.74 908.09,222.86 910.35,218.56
             912.29,214.86 916.39,212.79 920.00,211.14
             920.00,211.14 944.00,201.78 944.00,201.78
             944.00,201.78 958.00,194.91 958.00,194.91
             958.00,194.91 981.00,180.26 981.00,180.26
             981.00,180.26 1012.00,170.17 1012.00,170.17
             1016.77,167.63 1029.52,153.39 1039.00,151.64
             1043.53,150.81 1049.57,153.87 1054.00,155.08
             1059.85,156.68 1064.26,157.08 1070.00,160.08
             1070.00,160.08 1098.00,180.13 1098.00,180.13
             1098.00,180.13 1117.00,192.01 1117.00,192.01
             1117.00,192.01 1129.00,197.22 1129.00,197.22
             1129.00,197.22 1160.00,214.45 1160.00,214.45
             1160.00,214.45 1184.00,226.95 1184.00,226.95
             1200.27,237.22 1214.60,252.44 1222.61,270.00
             1227.23,280.13 1224.80,297.53 1217.48,305.89
             1213.25,310.72 1211.64,308.58 1204.00,316.02
             1204.00,316.02 1189.87,331.71 1189.87,331.71
             1185.97,334.34 1183.77,333.37 1179.00,336.48
             1169.54,342.67 1168.22,349.81 1154.00,350.00
             1141.77,350.16 1141.25,348.89 1130.00,345.57
             1130.00,345.57 1121.00,343.23 1121.00,343.23
             1121.00,343.23 1114.00,339.92 1114.00,339.92
             1109.02,337.88 1103.63,336.90 1099.00,334.05
             1089.50,328.19 1082.83,319.50 1067.00,310.42
             1067.00,310.42 1053.00,303.26 1053.00,303.26
             1053.00,303.26 1035.00,293.65 1035.00,293.65
             1035.00,293.65 993.00,275.53 993.00,275.53
             984.60,270.99 977.75,265.13 970.00,259.71
             970.00,259.71 960.00,253.37 960.00,253.37
             960.00,253.37 952.00,249.53 952.00,249.53
             952.00,249.53 935.17,238.18 935.17,238.18
             931.07,235.21 925.51,232.36 923.00,228.00
             923.00,228.00 919.00,229.00 919.00,229.00 Z" />

  <path id="zoo-map-enclosure-507f1f77bcf86cd799439014" class="path-enclosure" fill="none" tabindex="0" d="M 487.00,213.00
           C 492.59,208.72 504.37,202.31 511.00,199.88
             511.00,199.88 521.00,196.69 521.00,196.69
             530.96,192.63 541.08,187.48 549.99,181.46
             555.47,177.75 561.51,170.09 566.00,165.01
             566.00,165.01 588.00,143.15 588.00,143.15
             591.56,140.01 599.16,132.14 604.00,132.64
             607.07,132.96 611.43,136.74 614.00,138.57
             614.00,138.57 632.00,150.83 632.00,150.83
             637.09,154.24 647.23,159.89 650.00,165.00
             655.38,164.49 657.34,166.75 662.00,169.15
             671.57,174.09 672.51,176.21 684.00,179.91
             684.00,179.91 703.00,183.82 703.00,183.82
             706.23,184.21 709.92,183.56 712.83,185.17
             712.83,185.17 728.00,198.28 728.00,198.28
             728.00,198.28 737.00,203.98 737.00,203.98
             757.35,218.24 773.26,232.12 787.11,253.00
             789.88,257.17 794.17,265.08 794.99,270.00
             794.99,270.00 794.99,279.00 794.99,279.00
             795.65,284.04 797.07,288.17 794.35,292.99
             791.77,297.56 787.78,299.60 784.29,303.17
             778.15,309.43 777.05,312.54 768.99,318.51
             768.99,318.51 746.00,331.42 746.00,331.42
             737.91,336.12 730.92,342.00 721.00,341.82
             714.78,341.71 711.84,337.39 707.00,334.33
             707.00,334.33 698.00,329.46 698.00,329.46
             689.28,323.94 683.13,318.16 673.00,314.37
             673.00,314.37 659.00,309.59 659.00,309.59
             659.00,309.59 648.00,303.48 648.00,303.48
             648.00,303.48 616.00,286.15 616.00,286.15
             616.00,286.15 582.00,271.40 582.00,271.40
             582.00,271.40 557.00,256.38 557.00,256.38
             557.00,256.38 528.00,242.28 528.00,242.28
             523.27,240.30 516.09,238.36 512.04,235.79
             506.94,232.55 501.54,223.73 496.72,219.23
             492.80,215.57 491.07,217.08 487.00,213.00 Z" />

  <path id="zoo-map-enclosure-507f1f77bcf86cd799439015" class="path-enclosure" fill="none" tabindex="0" d="M 277.00,297.00
           C 285.08,293.97 284.44,295.77 291.00,294.08
             291.00,294.08 327.00,283.92 327.00,283.92
             327.00,283.92 342.00,280.69 342.00,280.69
             342.00,280.69 378.00,263.49 378.00,263.49
             378.00,263.49 406.00,252.69 406.00,252.69
             406.00,252.69 432.00,239.04 432.00,239.04
             432.00,239.04 459.00,229.02 459.00,229.02
             466.13,225.54 475.94,217.45 484.00,217.23
             488.12,217.11 491.77,219.91 495.00,222.21
             495.00,222.21 516.01,239.91 516.01,239.91
             520.27,243.41 524.45,244.34 527.00,249.00
             532.47,248.30 535.05,250.38 540.00,252.40
             555.64,258.76 552.02,257.77 566.00,265.72
             566.00,265.72 614.00,290.97 614.00,290.97
             614.00,290.97 652.00,309.91 652.00,309.91
             652.00,309.91 667.00,317.54 667.00,317.54
             674.38,321.00 671.00,318.40 680.00,323.84
             684.41,326.50 687.37,327.29 690.00,332.00
             695.15,332.06 703.90,338.27 703.59,344.04
             703.37,347.98 698.88,353.25 695.98,355.66
             685.87,364.08 677.63,358.77 662.00,367.12
             649.81,373.64 641.07,387.57 630.00,391.56
             622.57,394.24 614.23,392.29 598.00,398.68
             598.00,398.68 575.00,409.77 575.00,409.77
             566.37,412.94 557.00,414.63 548.00,416.49
             548.00,416.49 540.00,417.76 540.00,417.76
             540.00,417.76 528.00,422.37 528.00,422.37
             528.00,422.37 508.00,425.91 508.00,425.91
             489.04,427.01 489.29,412.39 474.00,406.55
             474.00,406.55 459.00,401.69 459.00,401.69
             459.00,401.69 415.00,378.31 415.00,378.31
             415.00,378.31 382.00,360.92 382.00,360.92
             382.00,360.92 359.00,344.63 359.00,344.63
             359.00,344.63 340.00,328.88 340.00,328.88
             329.49,321.20 325.16,322.62 315.00,318.42
             302.30,313.18 301.25,310.49 292.00,305.75
             284.67,301.99 283.02,305.12 277.00,297.00 Z" />

  <path id="zoo-map-enclosure-507f1f77bcf86cd799439013" class="path-enclosure" fill="none" tabindex="0" d="M 229.00,479.00
     C 229.00,479.00 240.00,475.36 240.00,475.36
       240.00,475.36 258.00,466.34 258.00,466.34
       258.00,466.34 268.00,462.86 268.00,462.86
       268.00,462.86 278.00,455.16 278.00,455.16
       278.00,455.16 297.00,443.35 297.00,443.35
       297.00,443.35 310.00,437.21 310.00,437.21
       310.00,437.21 318.00,432.07 318.00,432.07
       318.00,432.07 325.00,428.87 325.00,428.87
       325.00,428.87 354.00,412.60 354.00,412.60
       354.00,412.60 367.00,406.74 367.00,406.74
       367.00,406.74 378.00,399.66 378.00,399.66
       378.00,399.66 384.00,396.39 384.00,396.39
       390.17,392.65 399.44,385.93 407.00,385.51
       418.43,384.88 429.66,397.49 440.00,401.94
       440.00,401.94 462.00,407.34 462.00,407.34
       462.00,407.34 488.00,424.84 488.00,424.84
       499.74,432.15 517.01,437.33 524.07,450.00
       525.79,453.08 525.84,456.67 526.78,460.00
       528.31,465.42 528.91,464.81 529.00,471.00
       529.18,484.50 527.72,488.04 517.99,498.00
       515.44,500.60 512.05,504.12 509.00,506.01
       504.25,508.95 501.59,508.17 498.72,509.73
       495.26,511.61 490.59,516.88 486.00,518.92
       480.93,521.16 475.19,520.41 470.00,521.52
       470.00,521.52 453.00,526.71 453.00,526.71
       453.00,526.71 441.00,528.70 441.00,528.70
       434.55,530.30 416.87,537.99 412.34,542.39
       408.38,546.22 404.30,558.35 396.00,561.40
       394.02,562.13 390.18,562.04 388.00,561.99
       388.00,561.99 376.00,560.43 376.00,560.43
       376.00,560.43 368.00,559.70 368.00,559.70
       360.72,558.65 351.09,555.61 344.00,553.34
       338.99,551.75 333.71,550.93 329.00,548.51
       320.02,543.90 319.66,541.44 312.00,536.22
       312.00,536.22 301.00,529.14 301.00,529.14
       301.00,529.14 270.00,508.26 270.00,508.26
       265.26,505.45 263.51,505.43 259.00,503.38
       249.18,498.93 249.49,498.43 241.00,492.86
       234.52,488.61 230.36,487.16 229.00,479.00 Z" />

  <path id="zoo-map-enclosure-507f1f77bcf86cd799439016" class="path-enclosure" fill="none" tabindex="0" d="M 283.00,106.00
           C 289.41,107.21 301.61,120.98 307.00,125.83
             320.39,137.88 336.01,147.34 351.00,157.18
             358.16,161.88 359.52,164.12 368.00,167.83
             368.00,167.83 395.00,178.39 395.00,178.39
             406.02,184.34 414.78,193.75 425.00,200.78
             430.26,204.40 434.36,205.56 440.00,208.00
             442.75,209.19 446.21,210.29 447.67,213.13
             451.39,220.40 436.77,225.71 432.00,228.68
             432.00,228.68 418.00,237.92 418.00,237.92
             412.64,241.87 412.50,242.78 406.00,246.58
             397.72,251.41 382.35,257.17 373.00,260.19
             373.00,260.19 332.00,277.19 332.00,277.19
             332.00,277.19 315.00,283.62 315.00,283.62
             315.00,283.62 306.00,285.67 306.00,285.67
             306.00,285.67 299.00,288.73 299.00,288.73
             299.00,288.73 287.01,292.31 287.01,292.31
             287.01,292.31 280.72,292.31 280.72,292.31
             280.72,292.31 261.00,296.66 261.00,296.66
             258.51,296.70 252.41,293.96 249.00,293.13
             249.00,293.13 240.00,291.74 240.00,291.74
             236.22,291.04 225.53,286.92 222.00,285.01
             222.00,285.01 201.00,273.51 201.00,273.51
             199.10,272.96 196.96,273.01 195.00,273.00
             185.45,272.94 183.16,272.14 175.00,266.64
             161.85,257.78 161.49,252.03 154.00,246.49
             149.48,243.15 144.75,242.15 140.00,239.83
             140.00,239.83 116.00,227.27 116.00,227.27
             113.39,226.23 103.20,223.76 103.20,220.94
             103.20,217.13 111.86,213.32 115.00,212.51
             120.53,211.09 127.96,209.62 132.87,206.59
             132.87,206.59 143.59,194.94 143.59,194.94
             148.37,190.40 150.28,190.97 154.99,186.81
             159.95,182.42 160.07,180.89 167.00,175.66
             167.00,175.66 190.68,158.47 190.68,158.47
             194.75,154.69 196.64,149.20 200.21,145.00
             200.21,145.00 209.48,135.00 209.48,135.00
             209.48,135.00 217.46,124.28 217.46,124.28
             217.46,124.28 233.60,108.71 233.60,108.71
             233.60,108.71 244.04,96.17 244.04,96.17
             249.88,90.65 252.88,89.72 259.00,85.76
             261.07,84.42 265.71,80.36 267.86,80.34
             270.81,80.31 271.34,84.87 272.10,87.00
             275.09,95.42 279.79,98.02 283.00,106.00 Z" />

  <path id="zoo-map-enclosure-507f1f77bcf86cd799439018" class="path-enclosure" fill="none" tabindex="0" d="M 525.00,434.00
     C 525.00,434.00 539.00,428.52 539.00,428.52
       539.00,428.52 555.00,420.76 555.00,420.76
       555.00,420.76 617.00,403.09 617.00,403.09
       617.00,403.09 638.00,395.85 638.00,395.85
       638.00,395.85 662.99,383.30 662.99,383.30
       665.00,382.47 669.17,379.58 670.92,379.90
       673.11,380.29 674.79,383.17 676.00,384.84
       676.00,384.84 686.37,399.29 686.37,399.29
       686.37,399.29 694.01,406.17 694.01,406.17
       694.01,406.17 703.00,414.70 703.00,414.70
       703.00,414.70 718.00,425.60 718.00,425.60
       718.00,425.60 724.00,430.37 724.00,430.37
       724.00,430.37 735.00,437.78 735.00,437.78
       739.15,440.20 741.33,439.50 744.00,444.00
       750.53,443.17 757.69,448.66 764.00,450.91
       776.65,455.43 801.59,464.49 811.28,472.80
       814.79,475.81 817.69,476.99 820.00,481.00
       824.41,480.55 826.61,481.14 829.00,485.00
       835.21,484.21 837.56,487.05 843.00,489.41
       843.00,489.41 860.00,496.33 860.00,496.33
       862.10,497.15 866.12,498.02 867.70,499.14
       870.17,500.87 872.57,507.86 871.36,510.69
       870.33,513.11 867.21,513.02 865.00,512.91
       865.00,512.91 845.00,510.18 845.00,510.18
       845.00,510.18 827.00,503.37 827.00,503.37
       824.95,503.23 808.17,507.01 806.00,508.14
       806.00,508.14 796.95,514.08 796.95,514.08
       795.45,514.67 782.20,515.86 772.00,520.46
       767.78,522.37 761.53,525.51 758.69,529.18
       757.55,530.66 756.42,533.26 755.53,535.00
       755.53,535.00 746.43,554.00 746.43,554.00
       742.37,562.55 740.26,570.06 731.00,574.95
       731.00,574.95 708.00,581.51 708.00,581.51
       695.55,585.66 682.99,589.55 670.00,591.68
       670.00,591.68 656.00,593.27 656.00,593.27
       646.07,594.81 647.50,596.98 637.00,597.00
       637.00,597.00 628.00,597.00 628.00,597.00
       614.80,596.94 607.19,591.46 596.00,585.71
       596.00,585.71 563.00,570.87 563.00,570.87
       563.00,570.87 548.00,565.19 548.00,565.19
       542.14,562.74 527.07,554.78 522.00,551.12
       522.00,551.12 505.00,535.46 505.00,535.46
       498.45,530.08 490.41,526.54 485.00,520.00
       485.00,520.00 501.00,510.09 501.00,510.09
       508.44,505.91 516.21,503.36 522.79,497.33
       530.08,490.66 533.58,479.67 533.96,470.00
       534.33,460.59 532.00,459.78 529.57,452.00
       529.57,452.00 525.00,434.00 525.00,434.00 Z" />
</svg>